<mxfile host="Electron" modified="2023-11-06T03:51:34.856Z" agent="Mozilla/5.0 (Windows NT 10.0; Win64; x64) AppleWebKit/537.36 (KHTML, like Gecko) draw.io/22.0.3 Chrome/114.0.5735.289 Electron/25.8.4 Safari/537.36" etag="lfIta5b6fPhLy5SLElVE" version="22.0.3" type="device">
  <diagram name="Страница — 1" id="0eID15_Tt-5BRCuNANKk">
    <mxGraphModel dx="1140" dy="1187" grid="1" gridSize="10" guides="1" tooltips="1" connect="1" arrows="1" fold="1" page="1" pageScale="1" pageWidth="1169" pageHeight="827" math="0" shadow="0">
      <root>
        <mxCell id="0" />
        <mxCell id="1" parent="0" />
        <mxCell id="0rH-f5yuoNrJUcwvg75t-15" value="Сервис формирования группы" style="text;html=1;align=center;verticalAlign=middle;resizable=0;points=[];autosize=1;strokeColor=none;fillColor=none;fontStyle=1;fontFamily=Tahoma;fontSize=16;" parent="1" vertex="1">
          <mxGeometry x="20" y="40" width="280" height="30" as="geometry" />
        </mxCell>
        <mxCell id="0rH-f5yuoNrJUcwvg75t-22" style="edgeStyle=orthogonalEdgeStyle;rounded=0;orthogonalLoop=1;jettySize=auto;html=1;entryX=0;entryY=0.5;entryDx=0;entryDy=0;fontFamily=Tahoma;" parent="1" source="0rH-f5yuoNrJUcwvg75t-20" target="0rH-f5yuoNrJUcwvg75t-21" edge="1">
          <mxGeometry relative="1" as="geometry" />
        </mxCell>
        <mxCell id="0rH-f5yuoNrJUcwvg75t-23" value="Да" style="edgeLabel;html=1;align=center;verticalAlign=middle;resizable=0;points=[];fontFamily=Tahoma;" parent="0rH-f5yuoNrJUcwvg75t-22" vertex="1" connectable="0">
          <mxGeometry x="-0.1667" y="1" relative="1" as="geometry">
            <mxPoint y="-9" as="offset" />
          </mxGeometry>
        </mxCell>
        <mxCell id="0rH-f5yuoNrJUcwvg75t-25" style="edgeStyle=orthogonalEdgeStyle;rounded=0;orthogonalLoop=1;jettySize=auto;html=1;entryX=0.5;entryY=0;entryDx=0;entryDy=0;fontFamily=Tahoma;" parent="1" source="0rH-f5yuoNrJUcwvg75t-20" target="0rH-f5yuoNrJUcwvg75t-24" edge="1">
          <mxGeometry relative="1" as="geometry" />
        </mxCell>
        <mxCell id="0rH-f5yuoNrJUcwvg75t-26" value="Нет" style="edgeLabel;html=1;align=center;verticalAlign=middle;resizable=0;points=[];fontFamily=Tahoma;" parent="0rH-f5yuoNrJUcwvg75t-25" vertex="1" connectable="0">
          <mxGeometry x="-0.2789" y="1" relative="1" as="geometry">
            <mxPoint x="-21" y="-5" as="offset" />
          </mxGeometry>
        </mxCell>
        <mxCell id="0rH-f5yuoNrJUcwvg75t-20" value="Проверка на достаточное количество активных заявок" style="rounded=1;whiteSpace=wrap;html=1;fillColor=#d5e8d4;strokeColor=#82b366;fontFamily=Tahoma;" parent="1" vertex="1">
          <mxGeometry x="10" y="80" width="120" height="60" as="geometry" />
        </mxCell>
        <mxCell id="0rH-f5yuoNrJUcwvg75t-21" value="Формирование новой группы" style="rounded=1;whiteSpace=wrap;html=1;fillColor=#d5e8d4;strokeColor=#82b366;fontFamily=Tahoma;" parent="1" vertex="1">
          <mxGeometry x="190" y="80" width="120" height="60" as="geometry" />
        </mxCell>
        <mxCell id="0rH-f5yuoNrJUcwvg75t-24" value="Ожидание следующей проверки" style="rounded=1;whiteSpace=wrap;html=1;fillColor=#d5e8d4;strokeColor=#82b366;fontFamily=Tahoma;" parent="1" vertex="1">
          <mxGeometry x="10" y="210" width="120" height="60" as="geometry" />
        </mxCell>
        <mxCell id="0rH-f5yuoNrJUcwvg75t-27" value="Формирование новой группы" style="text;html=1;align=center;verticalAlign=middle;resizable=0;points=[];autosize=1;strokeColor=none;fillColor=none;fontStyle=1;fontSize=16;fontFamily=Tahoma;" parent="1" vertex="1">
          <mxGeometry x="400" y="40" width="270" height="30" as="geometry" />
        </mxCell>
        <mxCell id="0rH-f5yuoNrJUcwvg75t-31" style="edgeStyle=orthogonalEdgeStyle;rounded=0;orthogonalLoop=1;jettySize=auto;html=1;entryX=0.5;entryY=0;entryDx=0;entryDy=0;fontFamily=Tahoma;" parent="1" source="0rH-f5yuoNrJUcwvg75t-28" target="0rH-f5yuoNrJUcwvg75t-30" edge="1">
          <mxGeometry relative="1" as="geometry" />
        </mxCell>
        <mxCell id="0rH-f5yuoNrJUcwvg75t-28" value="Создание группы&lt;br&gt;&lt;b&gt;insert query&lt;/b&gt;" style="rounded=0;whiteSpace=wrap;html=1;fontFamily=Tahoma;" parent="1" vertex="1">
          <mxGeometry x="475" y="80" width="120" height="40" as="geometry" />
        </mxCell>
        <mxCell id="0rH-f5yuoNrJUcwvg75t-33" style="edgeStyle=orthogonalEdgeStyle;rounded=0;orthogonalLoop=1;jettySize=auto;html=1;entryX=0.5;entryY=0;entryDx=0;entryDy=0;fontFamily=Tahoma;" parent="1" source="0rH-f5yuoNrJUcwvg75t-30" target="0rH-f5yuoNrJUcwvg75t-40" edge="1">
          <mxGeometry relative="1" as="geometry" />
        </mxCell>
        <mxCell id="0rH-f5yuoNrJUcwvg75t-30" value="Удаление активных заявок из очереди&lt;br&gt;&lt;b&gt;delete query&lt;/b&gt;" style="rounded=0;whiteSpace=wrap;html=1;fontFamily=Tahoma;" parent="1" vertex="1">
          <mxGeometry x="475" y="140" width="120" height="60" as="geometry" />
        </mxCell>
        <mxCell id="0rH-f5yuoNrJUcwvg75t-40" value="Уведомление пользователей" style="rounded=0;whiteSpace=wrap;html=1;fontFamily=Tahoma;fillColor=#ffe6cc;strokeColor=#d79b00;" parent="1" vertex="1">
          <mxGeometry x="475" y="220" width="120" height="40" as="geometry" />
        </mxCell>
        <mxCell id="OsqSlS3pbfmShtJ6vKDF-1" value="Отслеживание выполнения программы" style="text;html=1;align=center;verticalAlign=middle;resizable=0;points=[];autosize=1;strokeColor=none;fillColor=none;fontStyle=1;fontFamily=Tahoma;fontSize=16;" parent="1" vertex="1">
          <mxGeometry x="700" y="40" width="360" height="30" as="geometry" />
        </mxCell>
        <mxCell id="OsqSlS3pbfmShtJ6vKDF-9" value="Клиент пользователя" style="rounded=0;whiteSpace=wrap;html=1;fontFamily=Tahoma;fillColor=#ffe6cc;strokeColor=#d79b00;" parent="1" vertex="1">
          <mxGeometry x="40" y="680" width="120" height="40" as="geometry" />
        </mxCell>
        <mxCell id="OsqSlS3pbfmShtJ6vKDF-10" value="core" style="rounded=1;whiteSpace=wrap;html=1;fillColor=#d5e8d4;strokeColor=#82b366;fontFamily=Tahoma;" parent="1" vertex="1">
          <mxGeometry x="200" y="680" width="120" height="60" as="geometry" />
        </mxCell>
        <mxCell id="OsqSlS3pbfmShtJ6vKDF-12" value="Клиент администратора" style="rounded=0;whiteSpace=wrap;html=1;fontFamily=Tahoma;fillColor=#ffe6cc;strokeColor=#d79b00;" parent="1" vertex="1">
          <mxGeometry x="40" y="740" width="120" height="40" as="geometry" />
        </mxCell>
        <mxCell id="OsqSlS3pbfmShtJ6vKDF-13" value="handler" style="shape=parallelogram;perimeter=parallelogramPerimeter;whiteSpace=wrap;html=1;fixedSize=1;fillColor=#fff2cc;strokeColor=#d6b656;fontFamily=Tahoma;" parent="1" vertex="1">
          <mxGeometry x="200" y="750" width="120" height="60" as="geometry" />
        </mxCell>
        <mxCell id="OsqSlS3pbfmShtJ6vKDF-14" value="бд" style="rounded=0;whiteSpace=wrap;html=1;fontFamily=Tahoma;" parent="1" vertex="1">
          <mxGeometry x="340" y="680" width="120" height="60" as="geometry" />
        </mxCell>
        <mxCell id="OsqSlS3pbfmShtJ6vKDF-17" style="edgeStyle=orthogonalEdgeStyle;rounded=0;orthogonalLoop=1;jettySize=auto;html=1;entryX=0.5;entryY=0;entryDx=0;entryDy=0;" parent="1" source="OsqSlS3pbfmShtJ6vKDF-15" target="OsqSlS3pbfmShtJ6vKDF-16" edge="1">
          <mxGeometry relative="1" as="geometry" />
        </mxCell>
        <mxCell id="OsqSlS3pbfmShtJ6vKDF-15" value="Отправляет видеосообщение" style="rounded=0;whiteSpace=wrap;html=1;fontFamily=Tahoma;fillColor=#ffe6cc;strokeColor=#d79b00;" parent="1" vertex="1">
          <mxGeometry x="1245" y="80" width="120" height="40" as="geometry" />
        </mxCell>
        <mxCell id="OsqSlS3pbfmShtJ6vKDF-19" style="edgeStyle=orthogonalEdgeStyle;rounded=0;orthogonalLoop=1;jettySize=auto;html=1;entryX=0.5;entryY=0;entryDx=0;entryDy=0;" parent="1" source="OsqSlS3pbfmShtJ6vKDF-16" target="OsqSlS3pbfmShtJ6vKDF-18" edge="1">
          <mxGeometry relative="1" as="geometry" />
        </mxCell>
        <mxCell id="OsqSlS3pbfmShtJ6vKDF-20" value="верный ввод" style="edgeLabel;html=1;align=center;verticalAlign=middle;resizable=0;points=[];" parent="OsqSlS3pbfmShtJ6vKDF-19" vertex="1" connectable="0">
          <mxGeometry x="-0.4933" y="2" relative="1" as="geometry">
            <mxPoint x="33" y="7" as="offset" />
          </mxGeometry>
        </mxCell>
        <mxCell id="OsqSlS3pbfmShtJ6vKDF-21" style="edgeStyle=orthogonalEdgeStyle;rounded=0;orthogonalLoop=1;jettySize=auto;html=1;entryX=0.5;entryY=0;entryDx=0;entryDy=0;" parent="1" source="OsqSlS3pbfmShtJ6vKDF-16" target="OsqSlS3pbfmShtJ6vKDF-16" edge="1">
          <mxGeometry relative="1" as="geometry">
            <mxPoint x="1415" y="150" as="targetPoint" />
            <Array as="points">
              <mxPoint x="1305" y="140" />
              <mxPoint x="1445" y="140" />
              <mxPoint x="1445" y="200" />
              <mxPoint x="1305" y="200" />
            </Array>
          </mxGeometry>
        </mxCell>
        <mxCell id="OsqSlS3pbfmShtJ6vKDF-22" value="неверный ввод" style="edgeLabel;html=1;align=center;verticalAlign=middle;resizable=0;points=[];" parent="OsqSlS3pbfmShtJ6vKDF-21" vertex="1" connectable="0">
          <mxGeometry x="-0.043" y="-2" relative="1" as="geometry">
            <mxPoint x="-33" y="-41" as="offset" />
          </mxGeometry>
        </mxCell>
        <mxCell id="OsqSlS3pbfmShtJ6vKDF-16" value="Запрос количества повторений" style="shape=parallelogram;perimeter=parallelogramPerimeter;whiteSpace=wrap;html=1;fixedSize=1;fillColor=#fff2cc;strokeColor=#d6b656;fontFamily=Tahoma;" parent="1" vertex="1">
          <mxGeometry x="1230" y="160" width="150" height="60" as="geometry" />
        </mxCell>
        <mxCell id="OsqSlS3pbfmShtJ6vKDF-18" value="Создание новой сущности &quot;Видеосообщение&quot;" style="rounded=1;whiteSpace=wrap;html=1;fillColor=#d5e8d4;strokeColor=#82b366;fontFamily=Tahoma;" parent="1" vertex="1">
          <mxGeometry x="1245" y="270" width="120" height="60" as="geometry" />
        </mxCell>
        <mxCell id="OsqSlS3pbfmShtJ6vKDF-23" value="Получение результатов" style="text;html=1;align=center;verticalAlign=middle;resizable=0;points=[];autosize=1;strokeColor=none;fillColor=none;fontStyle=1;fontFamily=Tahoma;fontSize=16;" parent="1" vertex="1">
          <mxGeometry x="1195" y="40" width="220" height="30" as="geometry" />
        </mxCell>
        <mxCell id="OsqSlS3pbfmShtJ6vKDF-27" style="edgeStyle=orthogonalEdgeStyle;rounded=0;orthogonalLoop=1;jettySize=auto;html=1;entryX=0.5;entryY=1;entryDx=0;entryDy=0;" parent="1" source="OsqSlS3pbfmShtJ6vKDF-24" target="pxgv7TSN38psBs_FVojM-7" edge="1">
          <mxGeometry relative="1" as="geometry">
            <Array as="points">
              <mxPoint x="1050" y="450" />
            </Array>
          </mxGeometry>
        </mxCell>
        <mxCell id="OsqSlS3pbfmShtJ6vKDF-30" value="лимит&lt;br style=&quot;border-color: var(--border-color);&quot;&gt;не исчерпан" style="edgeLabel;html=1;align=center;verticalAlign=middle;resizable=1;points=[];" parent="OsqSlS3pbfmShtJ6vKDF-27" vertex="1" connectable="0">
          <mxGeometry x="0.1623" relative="1" as="geometry">
            <mxPoint x="-31" y="115" as="offset" />
          </mxGeometry>
        </mxCell>
        <mxCell id="pxgv7TSN38psBs_FVojM-14" value="план&lt;br&gt;не выполнен" style="edgeLabel;html=1;align=center;verticalAlign=middle;resizable=0;points=[];" vertex="1" connectable="0" parent="OsqSlS3pbfmShtJ6vKDF-27">
          <mxGeometry x="-0.585" y="3" relative="1" as="geometry">
            <mxPoint x="12" y="-13" as="offset" />
          </mxGeometry>
        </mxCell>
        <mxCell id="OsqSlS3pbfmShtJ6vKDF-38" style="edgeStyle=orthogonalEdgeStyle;rounded=0;orthogonalLoop=1;jettySize=auto;html=1;entryX=0.5;entryY=0;entryDx=0;entryDy=0;" parent="1" source="OsqSlS3pbfmShtJ6vKDF-24" target="OsqSlS3pbfmShtJ6vKDF-37" edge="1">
          <mxGeometry relative="1" as="geometry" />
        </mxCell>
        <mxCell id="OsqSlS3pbfmShtJ6vKDF-39" value="план выполнен" style="edgeLabel;html=1;align=center;verticalAlign=middle;resizable=0;points=[];" parent="OsqSlS3pbfmShtJ6vKDF-38" vertex="1" connectable="0">
          <mxGeometry x="-0.2703" y="1" relative="1" as="geometry">
            <mxPoint as="offset" />
          </mxGeometry>
        </mxCell>
        <mxCell id="OsqSlS3pbfmShtJ6vKDF-24" value="получение результатов" style="whiteSpace=wrap;html=1;aspect=fixed;fillColor=#f5f5f5;fontColor=#333333;strokeColor=#666666;" parent="1" vertex="1">
          <mxGeometry x="895" y="410" width="80" height="80" as="geometry" />
        </mxCell>
        <mxCell id="OsqSlS3pbfmShtJ6vKDF-26" style="edgeStyle=orthogonalEdgeStyle;rounded=0;orthogonalLoop=1;jettySize=auto;html=1;entryX=0.5;entryY=0;entryDx=0;entryDy=0;" parent="1" source="OsqSlS3pbfmShtJ6vKDF-25" target="OsqSlS3pbfmShtJ6vKDF-24" edge="1">
          <mxGeometry relative="1" as="geometry" />
        </mxCell>
        <mxCell id="OsqSlS3pbfmShtJ6vKDF-25" value="Ожидание результатов&amp;nbsp; выполнения от пользователя" style="whiteSpace=wrap;html=1;aspect=fixed;fillColor=#f5f5f5;fontColor=#333333;strokeColor=#666666;" parent="1" vertex="1">
          <mxGeometry x="885" y="270" width="100" height="100" as="geometry" />
        </mxCell>
        <mxCell id="OsqSlS3pbfmShtJ6vKDF-32" style="edgeStyle=orthogonalEdgeStyle;rounded=0;orthogonalLoop=1;jettySize=auto;html=1;entryX=0.5;entryY=0;entryDx=0;entryDy=0;" parent="1" source="OsqSlS3pbfmShtJ6vKDF-31" target="OsqSlS3pbfmShtJ6vKDF-25" edge="1">
          <mxGeometry relative="1" as="geometry">
            <Array as="points">
              <mxPoint x="810" y="250" />
              <mxPoint x="935" y="250" />
            </Array>
          </mxGeometry>
        </mxCell>
        <mxCell id="OsqSlS3pbfmShtJ6vKDF-33" value="дата не изменилась&lt;br&gt;и сверхнорма не заполнена" style="edgeLabel;html=1;align=center;verticalAlign=middle;resizable=0;points=[];" parent="OsqSlS3pbfmShtJ6vKDF-32" vertex="1" connectable="0">
          <mxGeometry x="-0.3421" y="1" relative="1" as="geometry">
            <mxPoint x="74" y="-11" as="offset" />
          </mxGeometry>
        </mxCell>
        <mxCell id="OsqSlS3pbfmShtJ6vKDF-35" style="edgeStyle=orthogonalEdgeStyle;rounded=0;orthogonalLoop=1;jettySize=auto;html=1;entryX=0;entryY=0.5;entryDx=0;entryDy=0;" parent="1" source="OsqSlS3pbfmShtJ6vKDF-31" target="OsqSlS3pbfmShtJ6vKDF-34" edge="1">
          <mxGeometry relative="1" as="geometry" />
        </mxCell>
        <mxCell id="OsqSlS3pbfmShtJ6vKDF-36" value="дата изменилась" style="edgeLabel;html=1;align=center;verticalAlign=middle;resizable=0;points=[];" parent="OsqSlS3pbfmShtJ6vKDF-35" vertex="1" connectable="0">
          <mxGeometry x="0.0212" y="-2" relative="1" as="geometry">
            <mxPoint x="-4" y="-17" as="offset" />
          </mxGeometry>
        </mxCell>
        <mxCell id="OsqSlS3pbfmShtJ6vKDF-31" value="проверка&lt;br&gt;даты" style="whiteSpace=wrap;html=1;aspect=fixed;fillColor=#f5f5f5;fontColor=#333333;strokeColor=#666666;" parent="1" vertex="1">
          <mxGeometry x="755" y="80" width="70" height="70" as="geometry" />
        </mxCell>
        <mxCell id="OsqSlS3pbfmShtJ6vKDF-34" value="смена дня" style="whiteSpace=wrap;html=1;aspect=fixed;fillColor=#f5f5f5;fontColor=#333333;strokeColor=#666666;" parent="1" vertex="1">
          <mxGeometry x="940" y="75" width="80" height="80" as="geometry" />
        </mxCell>
        <mxCell id="OsqSlS3pbfmShtJ6vKDF-42" style="edgeStyle=orthogonalEdgeStyle;rounded=0;orthogonalLoop=1;jettySize=auto;html=1;entryX=0.5;entryY=1;entryDx=0;entryDy=0;" parent="1" source="OsqSlS3pbfmShtJ6vKDF-37" target="OsqSlS3pbfmShtJ6vKDF-44" edge="1">
          <mxGeometry relative="1" as="geometry">
            <Array as="points">
              <mxPoint x="935" y="630" />
              <mxPoint x="740" y="630" />
            </Array>
          </mxGeometry>
        </mxCell>
        <mxCell id="OsqSlS3pbfmShtJ6vKDF-43" value="Лимит исчерпан" style="edgeLabel;html=1;align=center;verticalAlign=middle;resizable=0;points=[];" parent="OsqSlS3pbfmShtJ6vKDF-42" vertex="1" connectable="0">
          <mxGeometry x="-0.7118" y="1" relative="1" as="geometry">
            <mxPoint x="-45" y="-11" as="offset" />
          </mxGeometry>
        </mxCell>
        <mxCell id="pxgv7TSN38psBs_FVojM-10" style="edgeStyle=orthogonalEdgeStyle;rounded=0;orthogonalLoop=1;jettySize=auto;html=1;entryX=0.5;entryY=1;entryDx=0;entryDy=0;" edge="1" parent="1" source="OsqSlS3pbfmShtJ6vKDF-37" target="pxgv7TSN38psBs_FVojM-7">
          <mxGeometry relative="1" as="geometry" />
        </mxCell>
        <mxCell id="OsqSlS3pbfmShtJ6vKDF-37" value="проверка&lt;br&gt;сверхнормы" style="whiteSpace=wrap;html=1;aspect=fixed;fillColor=#f5f5f5;fontColor=#333333;strokeColor=#666666;" parent="1" vertex="1">
          <mxGeometry x="895" y="540" width="80" height="80" as="geometry" />
        </mxCell>
        <mxCell id="OsqSlS3pbfmShtJ6vKDF-45" style="edgeStyle=orthogonalEdgeStyle;rounded=0;orthogonalLoop=1;jettySize=auto;html=1;entryX=0;entryY=0.5;entryDx=0;entryDy=0;" parent="1" source="OsqSlS3pbfmShtJ6vKDF-44" target="OsqSlS3pbfmShtJ6vKDF-31" edge="1">
          <mxGeometry relative="1" as="geometry">
            <Array as="points">
              <mxPoint x="740" y="115" />
            </Array>
          </mxGeometry>
        </mxCell>
        <mxCell id="OsqSlS3pbfmShtJ6vKDF-44" value="пользователь закончил выполнение&lt;br&gt;&lt;br&gt;сверхнорма выполнена" style="whiteSpace=wrap;html=1;aspect=fixed;fillColor=#f5f5f5;fontColor=#333333;strokeColor=#666666;" parent="1" vertex="1">
          <mxGeometry x="690" y="270" width="100" height="100" as="geometry" />
        </mxCell>
        <mxCell id="OsqSlS3pbfmShtJ6vKDF-54" value="Проверка даты" style="text;html=1;align=center;verticalAlign=middle;resizable=0;points=[];autosize=1;strokeColor=none;fillColor=none;fontStyle=1;fontFamily=Tahoma;fontSize=16;" parent="1" vertex="1">
          <mxGeometry x="1230" y="410" width="150" height="30" as="geometry" />
        </mxCell>
        <mxCell id="OsqSlS3pbfmShtJ6vKDF-62" style="edgeStyle=orthogonalEdgeStyle;rounded=0;orthogonalLoop=1;jettySize=auto;html=1;entryX=0.5;entryY=0;entryDx=0;entryDy=0;" parent="1" source="OsqSlS3pbfmShtJ6vKDF-56" target="OsqSlS3pbfmShtJ6vKDF-57" edge="1">
          <mxGeometry relative="1" as="geometry" />
        </mxCell>
        <mxCell id="OsqSlS3pbfmShtJ6vKDF-56" value="каждый час достаются из БД все активные часовые пояса" style="rounded=1;whiteSpace=wrap;html=1;fillColor=#d5e8d4;strokeColor=#82b366;fontFamily=Tahoma;" parent="1" vertex="1">
          <mxGeometry x="1245" y="450" width="125" height="70" as="geometry" />
        </mxCell>
        <mxCell id="OsqSlS3pbfmShtJ6vKDF-63" style="edgeStyle=orthogonalEdgeStyle;rounded=0;orthogonalLoop=1;jettySize=auto;html=1;entryX=0;entryY=0.5;entryDx=0;entryDy=0;" parent="1" source="OsqSlS3pbfmShtJ6vKDF-57" target="OsqSlS3pbfmShtJ6vKDF-56" edge="1">
          <mxGeometry relative="1" as="geometry">
            <mxPoint x="1220" y="485" as="targetPoint" />
            <Array as="points">
              <mxPoint x="1220" y="580" />
              <mxPoint x="1220" y="485" />
            </Array>
          </mxGeometry>
        </mxCell>
        <mxCell id="OsqSlS3pbfmShtJ6vKDF-64" value="нет" style="edgeLabel;html=1;align=center;verticalAlign=middle;resizable=0;points=[];" parent="OsqSlS3pbfmShtJ6vKDF-63" vertex="1" connectable="0">
          <mxGeometry x="0.0066" relative="1" as="geometry">
            <mxPoint x="-15" y="5" as="offset" />
          </mxGeometry>
        </mxCell>
        <mxCell id="OsqSlS3pbfmShtJ6vKDF-67" style="edgeStyle=orthogonalEdgeStyle;rounded=0;orthogonalLoop=1;jettySize=auto;html=1;entryX=0.5;entryY=0;entryDx=0;entryDy=0;" parent="1" source="OsqSlS3pbfmShtJ6vKDF-57" target="OsqSlS3pbfmShtJ6vKDF-61" edge="1">
          <mxGeometry relative="1" as="geometry" />
        </mxCell>
        <mxCell id="OsqSlS3pbfmShtJ6vKDF-68" value="совпадение" style="edgeLabel;html=1;align=center;verticalAlign=middle;resizable=0;points=[];" parent="OsqSlS3pbfmShtJ6vKDF-67" vertex="1" connectable="0">
          <mxGeometry x="-0.544" y="1" relative="1" as="geometry">
            <mxPoint x="-49" as="offset" />
          </mxGeometry>
        </mxCell>
        <mxCell id="OsqSlS3pbfmShtJ6vKDF-57" value="проверка часового пояса на полночь" style="rounded=1;whiteSpace=wrap;html=1;fillColor=#d5e8d4;strokeColor=#82b366;fontFamily=Tahoma;" parent="1" vertex="1">
          <mxGeometry x="1247.5" y="550" width="120" height="60" as="geometry" />
        </mxCell>
        <mxCell id="OsqSlS3pbfmShtJ6vKDF-61" value="смена дня" style="whiteSpace=wrap;html=1;aspect=fixed;" parent="1" vertex="1">
          <mxGeometry x="1267.5" y="640" width="80" height="80" as="geometry" />
        </mxCell>
        <mxCell id="OsqSlS3pbfmShtJ6vKDF-69" value="&lt;font style=&quot;font-size: 16px;&quot;&gt;Проверка&lt;br style=&quot;border-color: var(--border-color); font-family: Helvetica;&quot;&gt;&lt;span style=&quot;font-family: Helvetica;&quot;&gt;сверхнормы&lt;/span&gt;&lt;/font&gt;" style="text;html=1;align=center;verticalAlign=middle;resizable=0;points=[];autosize=1;strokeColor=none;fillColor=none;fontStyle=1;fontFamily=Tahoma;fontSize=16;" parent="1" vertex="1">
          <mxGeometry x="1573.75" y="404" width="120" height="50" as="geometry" />
        </mxCell>
        <mxCell id="OsqSlS3pbfmShtJ6vKDF-86" value="Ожидание результатов&lt;br&gt;выполнения от пользователя" style="text;html=1;align=center;verticalAlign=middle;resizable=0;points=[];autosize=1;strokeColor=none;fillColor=none;fontStyle=1;fontFamily=Tahoma;fontSize=16;" parent="1" vertex="1">
          <mxGeometry x="1520" y="25" width="270" height="50" as="geometry" />
        </mxCell>
        <mxCell id="OsqSlS3pbfmShtJ6vKDF-92" style="edgeStyle=orthogonalEdgeStyle;rounded=0;orthogonalLoop=1;jettySize=auto;html=1;entryX=0.5;entryY=0;entryDx=0;entryDy=0;" parent="1" source="OsqSlS3pbfmShtJ6vKDF-87" target="OsqSlS3pbfmShtJ6vKDF-88" edge="1">
          <mxGeometry relative="1" as="geometry" />
        </mxCell>
        <mxCell id="OsqSlS3pbfmShtJ6vKDF-87" value="Отправляет сообщение" style="rounded=0;whiteSpace=wrap;html=1;fontFamily=Tahoma;fillColor=#ffe6cc;strokeColor=#d79b00;" parent="1" vertex="1">
          <mxGeometry x="1595" y="80" width="120" height="40" as="geometry" />
        </mxCell>
        <mxCell id="OsqSlS3pbfmShtJ6vKDF-91" style="edgeStyle=orthogonalEdgeStyle;rounded=0;orthogonalLoop=1;jettySize=auto;html=1;entryX=0.5;entryY=0;entryDx=0;entryDy=0;" parent="1" source="OsqSlS3pbfmShtJ6vKDF-88" target="OsqSlS3pbfmShtJ6vKDF-94" edge="1">
          <mxGeometry relative="1" as="geometry">
            <mxPoint x="1655" y="250" as="targetPoint" />
          </mxGeometry>
        </mxCell>
        <mxCell id="OsqSlS3pbfmShtJ6vKDF-93" value="совпадает" style="edgeLabel;html=1;align=center;verticalAlign=middle;resizable=0;points=[];" parent="OsqSlS3pbfmShtJ6vKDF-91" vertex="1" connectable="0">
          <mxGeometry x="-0.0962" y="1" relative="1" as="geometry">
            <mxPoint x="36" y="-7" as="offset" />
          </mxGeometry>
        </mxCell>
        <mxCell id="OsqSlS3pbfmShtJ6vKDF-88" value="проверка на video_note" style="shape=parallelogram;perimeter=parallelogramPerimeter;whiteSpace=wrap;html=1;fixedSize=1;fillColor=#fff2cc;strokeColor=#d6b656;fontFamily=Tahoma;" parent="1" vertex="1">
          <mxGeometry x="1565" y="140" width="180" height="60" as="geometry" />
        </mxCell>
        <mxCell id="OsqSlS3pbfmShtJ6vKDF-94" value="получение результатов" style="whiteSpace=wrap;html=1;aspect=fixed;fillColor=#f5f5f5;fontColor=#333333;strokeColor=#666666;" parent="1" vertex="1">
          <mxGeometry x="1615" y="230" width="80" height="80" as="geometry" />
        </mxCell>
        <mxCell id="pxgv7TSN38psBs_FVojM-3" style="edgeStyle=orthogonalEdgeStyle;rounded=0;orthogonalLoop=1;jettySize=auto;html=1;entryX=0.5;entryY=0;entryDx=0;entryDy=0;" edge="1" parent="1" source="pxgv7TSN38psBs_FVojM-1" target="pxgv7TSN38psBs_FVojM-2">
          <mxGeometry relative="1" as="geometry" />
        </mxCell>
        <mxCell id="pxgv7TSN38psBs_FVojM-1" value="Отправляет видеосообщение" style="rounded=0;whiteSpace=wrap;html=1;fontFamily=Tahoma;fillColor=#ffe6cc;strokeColor=#d79b00;" vertex="1" parent="1">
          <mxGeometry x="1573.75" y="454" width="120" height="40" as="geometry" />
        </mxCell>
        <mxCell id="pxgv7TSN38psBs_FVojM-5" style="edgeStyle=orthogonalEdgeStyle;rounded=0;orthogonalLoop=1;jettySize=auto;html=1;entryX=0.5;entryY=0;entryDx=0;entryDy=0;" edge="1" parent="1" source="pxgv7TSN38psBs_FVojM-2" target="pxgv7TSN38psBs_FVojM-4">
          <mxGeometry relative="1" as="geometry" />
        </mxCell>
        <mxCell id="pxgv7TSN38psBs_FVojM-6" value="да" style="edgeLabel;html=1;align=center;verticalAlign=middle;resizable=0;points=[];" vertex="1" connectable="0" parent="pxgv7TSN38psBs_FVojM-5">
          <mxGeometry x="-0.131" y="-1" relative="1" as="geometry">
            <mxPoint x="17" as="offset" />
          </mxGeometry>
        </mxCell>
        <mxCell id="pxgv7TSN38psBs_FVojM-16" style="edgeStyle=orthogonalEdgeStyle;rounded=0;orthogonalLoop=1;jettySize=auto;html=1;entryX=0;entryY=0.5;entryDx=0;entryDy=0;" edge="1" parent="1" source="pxgv7TSN38psBs_FVojM-2" target="pxgv7TSN38psBs_FVojM-15">
          <mxGeometry relative="1" as="geometry" />
        </mxCell>
        <mxCell id="pxgv7TSN38psBs_FVojM-17" value="нет" style="edgeLabel;html=1;align=center;verticalAlign=middle;resizable=0;points=[];" vertex="1" connectable="0" parent="pxgv7TSN38psBs_FVojM-16">
          <mxGeometry x="0.122" relative="1" as="geometry">
            <mxPoint y="-9" as="offset" />
          </mxGeometry>
        </mxCell>
        <mxCell id="pxgv7TSN38psBs_FVojM-2" value="количество уже выполненных повторений &amp;gt; минимального количества&lt;br&gt;&lt;b&gt;select query&lt;/b&gt;" style="rounded=0;whiteSpace=wrap;html=1;fontFamily=Tahoma;" vertex="1" parent="1">
          <mxGeometry x="1552.5" y="524" width="162.5" height="90" as="geometry" />
        </mxCell>
        <mxCell id="pxgv7TSN38psBs_FVojM-18" style="edgeStyle=orthogonalEdgeStyle;rounded=0;orthogonalLoop=1;jettySize=auto;html=1;entryX=0.5;entryY=1;entryDx=0;entryDy=0;" edge="1" parent="1" source="pxgv7TSN38psBs_FVojM-4" target="pxgv7TSN38psBs_FVojM-15">
          <mxGeometry relative="1" as="geometry" />
        </mxCell>
        <mxCell id="pxgv7TSN38psBs_FVojM-19" value="да" style="edgeLabel;html=1;align=center;verticalAlign=middle;resizable=0;points=[];" vertex="1" connectable="0" parent="pxgv7TSN38psBs_FVojM-18">
          <mxGeometry x="-0.4606" y="-4" relative="1" as="geometry">
            <mxPoint x="-5" y="-19" as="offset" />
          </mxGeometry>
        </mxCell>
        <mxCell id="pxgv7TSN38psBs_FVojM-21" style="edgeStyle=orthogonalEdgeStyle;rounded=0;orthogonalLoop=1;jettySize=auto;html=1;entryX=0.5;entryY=0;entryDx=0;entryDy=0;" edge="1" parent="1" source="pxgv7TSN38psBs_FVojM-4" target="pxgv7TSN38psBs_FVojM-20">
          <mxGeometry relative="1" as="geometry" />
        </mxCell>
        <mxCell id="pxgv7TSN38psBs_FVojM-22" value="да" style="edgeLabel;html=1;align=center;verticalAlign=middle;resizable=0;points=[];" vertex="1" connectable="0" parent="pxgv7TSN38psBs_FVojM-21">
          <mxGeometry x="-0.0667" y="-1" relative="1" as="geometry">
            <mxPoint x="17" y="-4" as="offset" />
          </mxGeometry>
        </mxCell>
        <mxCell id="pxgv7TSN38psBs_FVojM-4" value="общее количество выполненных повторений&lt;br&gt;&amp;lt; максимальной сверхнормы&lt;br&gt;&lt;b&gt;select query&lt;/b&gt;" style="rounded=0;whiteSpace=wrap;html=1;fontFamily=Tahoma;" vertex="1" parent="1">
          <mxGeometry x="1552.5" y="650" width="162.5" height="90" as="geometry" />
        </mxCell>
        <mxCell id="pxgv7TSN38psBs_FVojM-8" style="edgeStyle=orthogonalEdgeStyle;rounded=0;orthogonalLoop=1;jettySize=auto;html=1;entryX=1;entryY=0.5;entryDx=0;entryDy=0;" edge="1" parent="1" source="pxgv7TSN38psBs_FVojM-7" target="OsqSlS3pbfmShtJ6vKDF-25">
          <mxGeometry relative="1" as="geometry">
            <Array as="points">
              <mxPoint x="1050" y="320" />
            </Array>
          </mxGeometry>
        </mxCell>
        <mxCell id="pxgv7TSN38psBs_FVojM-7" value="отправить запрос на проверку" style="whiteSpace=wrap;html=1;aspect=fixed;fillColor=#f5f5f5;fontColor=#333333;strokeColor=#666666;" vertex="1" parent="1">
          <mxGeometry x="1010" y="330" width="80" height="80" as="geometry" />
        </mxCell>
        <mxCell id="pxgv7TSN38psBs_FVojM-9" style="edgeStyle=orthogonalEdgeStyle;rounded=0;orthogonalLoop=1;jettySize=auto;html=1;entryX=1;entryY=0.5;entryDx=0;entryDy=0;" edge="1" parent="1" target="OsqSlS3pbfmShtJ6vKDF-25">
          <mxGeometry relative="1" as="geometry">
            <mxPoint x="985" y="320" as="sourcePoint" />
            <Array as="points">
              <mxPoint x="1050" y="320" />
              <mxPoint x="1050" y="320" />
            </Array>
          </mxGeometry>
        </mxCell>
        <mxCell id="pxgv7TSN38psBs_FVojM-15" value="отправить запрос на проверку" style="whiteSpace=wrap;html=1;aspect=fixed;fillColor=#f5f5f5;fontColor=#333333;strokeColor=#666666;" vertex="1" parent="1">
          <mxGeometry x="1754" y="529" width="80" height="80" as="geometry" />
        </mxCell>
        <mxCell id="pxgv7TSN38psBs_FVojM-20" value="пользователь закончил выполнение&lt;br&gt;&lt;br&gt;сверхнорма выполнена" style="whiteSpace=wrap;html=1;aspect=fixed;" vertex="1" parent="1">
          <mxGeometry x="1583.75" y="770" width="100" height="100" as="geometry" />
        </mxCell>
        <mxCell id="pxgv7TSN38psBs_FVojM-23" value="Отправить запрос на проверку" style="text;html=1;align=center;verticalAlign=middle;resizable=0;points=[];autosize=1;strokeColor=none;fillColor=none;fontStyle=1;fontFamily=Tahoma;fontSize=16;" vertex="1" parent="1">
          <mxGeometry x="1885" y="37.5" width="280" height="30" as="geometry" />
        </mxCell>
        <mxCell id="pxgv7TSN38psBs_FVojM-30" value="Отправляет сообщение" style="rounded=0;whiteSpace=wrap;html=1;fontFamily=Tahoma;fillColor=#ffe6cc;strokeColor=#d79b00;" vertex="1" parent="1">
          <mxGeometry x="1965" y="80" width="120" height="40" as="geometry" />
        </mxCell>
        <mxCell id="pxgv7TSN38psBs_FVojM-31" value="добавляем" style="rounded=0;whiteSpace=wrap;html=1;fontFamily=Tahoma;" vertex="1" parent="1">
          <mxGeometry x="1943.75" y="150" width="162.5" height="90" as="geometry" />
        </mxCell>
      </root>
    </mxGraphModel>
  </diagram>
</mxfile>
